<?xml version="1.0" standalone="no"?>
<!DOCTYPE svg PUBLIC "-//W3C//DTD SVG 20010904//EN"
 "http://www.w3.org/TR/2001/REC-SVG-20010904/DTD/svg10.dtd">
<svg version="1.0" xmlns="http://www.w3.org/2000/svg"
 width="100.000000pt" height="100.000000pt" viewBox="0 0 100.000000 100.000000"
 preserveAspectRatio="xMidYMid meet">

<g transform="translate(0.000000,100.000000) scale(0.100000,-0.100000)"
fill="#000000" stroke="none">
<path d="M375 694 c-69 -18 -117 -38 -139 -61 -25 -25 -26 -31 -26 -135 0
-104 1 -110 26 -133 48 -45 116 -60 264 -60 148 0 216 15 264 60 25 23 26 29
26 133 0 104 -1 111 -26 135 -43 43 -106 59 -244 63 -69 1 -134 1 -145 -2z
m229 -30 c9 -25 7 -34 -7 -28 -7 2 -22 -4 -32 -16 -10 -11 -29 -20 -42 -20
-27 0 -29 7 -6 32 13 14 13 18 2 19 -18 1 41 28 62 29 9 0 20 -7 23 -16z
m-221 -29 c53 -2 76 -13 77 -36 0 -3 -19 -10 -43 -15 -31 -8 -46 -7 -54 1 -6
7 -35 15 -63 19 -51 7 -52 7 -34 27 11 13 24 17 38 13 11 -4 47 -8 79 -9z
m252 -34 c-3 -6 11 -13 32 -16 69 -12 75 -15 62 -31 -13 -16 -159 -16 -171 1
-15 20 -7 32 25 43 42 13 60 14 52 3z m-146 -57 c-15 -16 -18 -24 -9 -24 24 0
-3 -17 -38 -25 -47 -10 -53 16 -11 53 22 20 39 27 56 24 l24 -5 -22 -23z"/>
</g>
</svg>
